<?xml version="1.0" standalone="no"?>
<!DOCTYPE svg PUBLIC "-//W3C//DTD SVG 20010904//EN"
 "http://www.w3.org/TR/2001/REC-SVG-20010904/DTD/svg10.dtd">
<svg version="1.0" xmlns="http://www.w3.org/2000/svg"
 width="1080.000000pt" height="1095.000000pt" viewBox="0 0 1080.000000 1095.000000"
 preserveAspectRatio="xMidYMid meet">

<g transform="translate(0.000000,1095.000000) scale(0.100000,-0.100000)"
fill="#000000" stroke="none">
<path d="M5370 10601 c-49 -15 -87 -40 -122 -79 -36 -40 -49 -71 -199 -467
-84 -223 -116 -290 -198 -411 -132 -196 -264 -291 -390 -282 -113 8 -177 79
-188 206 -4 58 -1 73 19 112 24 45 97 104 144 116 30 8 89 -21 110 -54 22 -34
20 -80 -5 -105 -20 -20 -20 -20 -67 0 -51 22 -80 19 -116 -14 -30 -27 -24 -92
12 -135 56 -68 125 -71 222 -9 111 71 131 207 51 351 -29 52 -94 97 -159 110
-73 15 -130 6 -187 -30 -55 -35 -130 -127 -146 -179 -37 -125 15 -286 130
-406 134 -140 244 -148 425 -30 91 59 161 125 253 240 61 76 171 236 171 249
0 4 13 34 29 69 16 34 39 89 52 122 12 33 30 78 39 100 9 22 23 56 31 75 25
65 67 133 104 172 39 40 84 50 125 28 27 -14 76 -99 95 -166 10 -32 21 -68 25
-79 5 -11 23 -67 41 -125 17 -58 35 -114 40 -125 4 -11 24 -65 44 -120 92
-253 189 -400 329 -500 31 -22 56 -43 56 -47 0 -20 -233 13 -257 36 -16 15
-264 763 -289 871 -4 17 -10 35 -14 40 -4 6 -10 22 -14 37 -3 15 -23 46 -45
68 -50 52 -92 55 -140 8 -32 -31 -71 -96 -71 -119 0 -6 -36 -108 -81 -227
-228 -613 -246 -657 -262 -670 -7 -5 -91 -21 -187 -36 -458 -72 -897 -230
-1285 -461 -66 -40 -130 -77 -142 -84 -20 -10 -60 5 -325 125 -167 75 -335
151 -375 170 -39 19 -73 34 -76 34 -3 0 -54 23 -113 51 -282 133 -421 191
-472 196 -109 12 -187 -45 -211 -153 -27 -117 1 -179 233 -522 404 -599 465
-693 459 -709 -6 -15 -147 -217 -179 -256 -8 -9 -14 -19 -14 -21 0 -2 -27 -50
-61 -107 -34 -56 -64 -110 -67 -118 -3 -9 -14 -25 -24 -35 -18 -19 -18 -19
-18 16 0 65 -28 111 -87 142 -43 22 -80 20 -127 -7 -101 -58 -99 -198 4 -249
46 -23 87 -23 135 2 22 11 41 20 42 20 10 0 0 -37 -23 -83 -73 -150 -151 -362
-218 -592 -49 -172 -44 -165 -77 -109 -54 92 -163 182 -271 222 -25 9 -76 16
-123 16 -70 1 -86 -3 -133 -28 -61 -34 -121 -96 -153 -157 -44 -88 -12 -235
65 -294 83 -63 208 -91 278 -61 83 35 143 125 143 213 0 47 -4 57 -36 89 -46
46 -101 56 -141 25 -38 -30 -46 -81 -20 -123 23 -40 20 -53 -20 -74 -38 -20
-68 -12 -107 27 -23 23 -31 40 -31 67 0 89 109 192 203 192 47 0 129 -26 161
-51 35 -27 76 -109 76 -151 0 -76 -70 -176 -170 -245 -122 -84 -190 -111 -525
-212 -423 -127 -467 -145 -531 -213 -63 -66 -81 -98 -95 -165 -19 -91 -1 -162
56 -219 46 -46 76 -61 230 -119 55 -20 109 -41 120 -45 11 -5 83 -32 160 -60
176 -65 297 -126 402 -201 180 -130 262 -243 263 -360 0 -132 -84 -209 -230
-209 -69 0 -127 34 -171 100 -43 64 -41 118 6 159 23 20 46 31 66 31 65 0 85
-34 53 -90 -20 -33 -13 -89 14 -113 15 -13 53 -21 89 -18 24 2 82 62 93 96 27
81 -44 203 -142 245 -49 21 -58 22 -111 11 -164 -34 -247 -122 -249 -264 -1
-75 23 -128 87 -191 127 -126 291 -129 469 -11 31 20 74 57 95 81 106 121 106
239 -1 401 -135 202 -385 389 -673 503 -271 107 -332 139 -372 199 -30 44 -29
72 3 111 34 40 83 64 203 102 587 184 749 267 899 461 25 34 48 55 53 50 13
-13 -19 -236 -36 -249 -15 -11 -699 -239 -869 -289 -177 -53 -237 -125 -170
-205 33 -39 64 -55 194 -100 58 -20 127 -46 154 -58 27 -12 56 -22 65 -22 9 0
21 -4 26 -9 6 -5 66 -29 135 -54 259 -94 475 -178 486 -190 7 -7 22 -66 34
-132 35 -191 95 -430 126 -503 14 -33 19 -82 8 -82 -3 0 -21 12 -40 26 -78 60
-192 21 -222 -77 -12 -40 -12 -48 7 -91 43 -101 170 -118 243 -33 10 11 17 25
18 32 0 21 23 64 32 61 12 -4 89 -189 86 -206 -2 -9 -13 -7 -43 8 -52 26 -104
26 -145 -2 -123 -84 -72 -261 75 -261 70 0 106 26 136 98 22 54 23 54 38 32
20 -28 121 -228 121 -240 0 -4 -12 4 -28 19 -70 67 -157 69 -217 3 -31 -34
-35 -46 -35 -91 0 -150 182 -203 260 -76 11 18 20 49 20 68 0 36 18 73 26 55
14 -34 73 -125 143 -225 44 -63 81 -121 81 -128 0 -7 -89 -144 -197 -305 -509
-756 -487 -717 -487 -844 0 -76 3 -86 30 -125 40 -58 86 -82 149 -82 63 1 102
14 232 76 57 26 105 48 107 48 2 0 42 17 88 39 108 50 151 69 343 156 88 40
190 87 228 104 37 17 69 31 72 31 2 0 56 25 120 55 65 30 122 55 128 55 14 0
105 -57 137 -86 14 -12 54 -38 90 -57 145 -75 246 -132 258 -144 11 -11 9 -13
-13 -13 -68 0 -139 -55 -151 -116 -24 -128 112 -221 219 -149 37 26 67 79 67
120 0 12 -11 43 -25 69 -22 42 -23 46 -6 46 9 0 58 -18 108 -39 241 -105 491
-179 782 -231 84 -16 156 -32 161 -37 4 -4 31 -71 59 -148 29 -77 59 -158 68
-180 8 -22 19 -49 23 -60 4 -11 15 -37 24 -58 9 -21 16 -46 16 -57 0 -10 5
-22 10 -25 6 -3 10 -16 10 -29 0 -13 7 -37 16 -55 8 -17 14 -37 11 -44 -3 -7
-7 -4 -12 8 -13 38 -40 90 -47 93 -5 2 -8 9 -8 14 0 10 -87 157 -99 168 -3 3
-39 48 -79 102 -40 53 -89 109 -108 125 -20 15 -48 38 -63 51 -87 75 -194 119
-264 108 -126 -20 -266 -159 -321 -316 -9 -25 -16 -75 -16 -111 0 -54 6 -77
31 -127 36 -74 111 -144 176 -166 58 -20 74 -20 148 -1 50 13 68 24 107 65
131 140 111 331 -44 411 -45 23 -120 25 -153 3 -49 -32 -81 -115 -57 -150 14
-20 57 -44 80 -44 13 0 36 7 52 15 35 18 54 12 69 -21 18 -40 13 -62 -23 -101
-44 -48 -91 -51 -153 -9 -86 57 -117 139 -93 242 33 138 170 203 299 140 122
-58 222 -178 332 -396 43 -86 70 -163 169 -489 39 -128 82 -250 95 -271 94
-148 274 -158 424 -23 62 55 85 100 181 358 146 394 183 489 208 535 114 206
263 317 379 280 159 -51 207 -269 82 -374 -77 -66 -144 -73 -195 -22 -41 41
-46 89 -14 124 26 27 42 28 65 2 27 -29 89 -27 120 5 47 46 22 140 -46 177
-42 24 -109 19 -165 -12 -55 -31 -64 -39 -96 -89 -22 -36 -28 -57 -28 -101 0
-89 38 -183 95 -233 77 -68 193 -81 283 -32 95 51 165 150 179 252 11 81 -43
233 -113 320 -80 98 -163 137 -258 121 -59 -11 -178 -72 -243 -125 -133 -109
-251 -317 -393 -693 -45 -118 -92 -234 -105 -256 -33 -56 -80 -94 -116 -94
-54 0 -124 89 -164 210 -10 30 -21 64 -25 75 -4 11 -16 47 -25 80 -10 33 -21
68 -26 77 -5 10 -9 32 -8 50 l1 33 7 -30 c4 -16 12 -39 18 -50 19 -34 40 -87
59 -145 27 -85 76 -156 118 -170 77 -25 134 43 182 220 8 30 21 73 29 95 7 22
64 194 126 383 61 189 118 349 126 357 8 8 25 15 38 15 43 0 318 50 438 80
130 32 325 91 402 122 121 48 152 61 190 78 52 24 99 36 93 24 -49 -92 -47
-148 11 -205 48 -48 97 -58 154 -29 61 30 82 63 82 132 0 51 -3 60 -35 93 -19
19 -52 40 -73 46 -44 12 -44 27 -2 49 90 47 231 130 307 180 48 32 95 61 105
64 10 3 59 -13 118 -40 55 -25 143 -65 195 -88 186 -84 636 -288 686 -311 343
-161 398 -179 482 -151 117 39 161 169 109 323 -22 63 -207 349 -664 1021 -35
51 -63 100 -63 109 0 8 12 32 28 52 15 20 32 45 39 56 7 11 44 73 83 137 222
368 392 821 465 1242 15 91 31 121 69 132 23 6 228 83 391 145 105 40 368 138
495 184 85 31 157 84 166 122 17 67 -49 122 -201 168 -228 68 -855 278 -864
288 -5 7 -13 37 -16 67 -27 233 -75 482 -125 645 -66 215 -112 340 -199 542
-17 40 -31 79 -31 87 0 8 -6 19 -14 23 -7 4 -27 35 -44 69 -17 33 -47 87 -66
120 -40 66 -47 101 -18 89 108 -45 204 2 218 107 14 117 -120 201 -216 136
-38 -27 -70 -81 -70 -120 0 -15 -4 -29 -9 -32 -11 -7 -121 152 -121 174 1 8
25 51 56 95 89 130 567 841 597 890 63 100 85 232 51 313 -46 112 -168 142
-309 78 -33 -16 -125 -57 -205 -93 -196 -88 -223 -100 -310 -140 -92 -43 -249
-115 -435 -198 -77 -34 -165 -74 -195 -89 -76 -37 -99 -36 -161 10 -53 39 -80
56 -109 71 -26 12 -174 101 -200 120 l-24 17 38 8 c91 19 143 83 134 163 -9
76 -64 125 -140 125 -55 0 -112 -37 -133 -87 -19 -46 -19 -69 5 -118 24 -52
12 -55 -71 -17 -165 76 -436 175 -536 196 -51 12 -48 31 12 61 136 66 262 292
239 430 -18 106 -115 226 -208 258 -71 24 -90 23 -196 -15 -56 -19 -109 -87
-135 -174 -28 -92 -14 -170 41 -228 60 -63 140 -93 205 -76 32 9 46 21 70 57
37 59 37 87 0 124 -33 33 -82 39 -115 14 -28 -21 -52 -19 -70 7 -33 47 -8 111
55 144 37 18 77 8 138 -36 52 -38 69 -64 81 -127 18 -99 -30 -208 -108 -247
-45 -22 -133 -21 -180 3 -39 20 -129 107 -164 157 -61 90 -96 179 -173 429
-154 506 -151 497 -195 563 -39 59 -102 112 -162 136 -43 18 -127 27 -158 17z
m95 -617 c44 -29 68 -77 130 -259 13 -38 49 -142 80 -230 31 -88 63 -180 71
-204 21 -59 13 -63 -116 -54 -58 5 -201 7 -317 6 -207 -2 -213 -1 -213 18 0
17 83 252 145 409 8 19 30 79 50 134 44 122 61 156 89 178 26 22 50 22 81 2z
m380 -894 c189 -19 309 -39 395 -65 30 -9 86 -25 123 -36 77 -21 271 -85 302
-99 11 -5 43 -18 70 -29 93 -35 161 -69 179 -90 10 -11 34 -23 52 -27 19 -3
37 -10 40 -15 3 -5 13 -9 22 -9 54 0 449 -265 627 -420 146 -127 348 -335 418
-429 23 -31 47 -61 53 -68 7 -7 52 -69 100 -138 49 -70 106 -147 127 -173 20
-26 37 -50 37 -55 0 -12 54 -124 92 -192 33 -57 50 -109 63 -185 3 -20 16 -43
31 -55 30 -24 76 -134 134 -318 23 -73 46 -141 50 -152 24 -61 78 -349 106
-565 8 -69 18 -238 21 -377 10 -453 -35 -791 -162 -1223 -9 -30 -20 -71 -24
-90 -10 -44 -31 -109 -42 -132 -5 -10 -9 -23 -9 -31 0 -7 -11 -29 -25 -49 -14
-20 -34 -60 -46 -90 -53 -134 -177 -362 -286 -525 -65 -98 -120 -180 -123
-183 -3 -3 -22 -27 -42 -55 -20 -27 -45 -57 -55 -66 -10 -8 -52 -53 -93 -100
-202 -228 -546 -509 -773 -632 -29 -16 -72 -41 -97 -56 -42 -25 -105 -57 -237
-117 -28 -13 -54 -24 -57 -24 -4 0 -25 -9 -49 -20 -95 -44 -326 -119 -482
-156 -133 -32 -390 -73 -530 -84 -209 -18 -625 -8 -805 19 -221 34 -301 48
-385 71 -389 104 -698 233 -1003 416 -110 67 -327 215 -342 233 -3 4 -25 22
-50 41 -142 109 -311 271 -490 470 -52 58 -99 111 -105 118 -5 7 -16 19 -22
27 -7 7 -13 16 -13 19 0 3 -25 41 -55 83 -30 43 -74 110 -99 149 -24 39 -60
92 -81 119 -20 27 -41 60 -46 73 -23 59 -67 142 -104 197 -27 39 -48 84 -58
127 -10 38 -28 92 -41 120 -13 29 -32 78 -41 108 -9 30 -20 63 -26 72 -5 10
-9 23 -9 29 0 6 -6 25 -14 42 -8 18 -17 46 -21 62 -14 66 -36 173 -46 230 -5
33 -19 96 -29 140 -51 214 -64 560 -35 917 20 252 30 308 103 583 19 72 41
162 49 200 8 39 18 75 22 80 5 6 39 82 76 170 37 88 76 171 85 185 28 40 60
100 60 111 0 23 27 73 138 256 65 106 218 319 262 365 19 19 76 81 125 137 50
57 101 113 115 124 14 12 52 50 86 85 34 35 82 78 106 95 25 18 103 78 173
135 69 56 143 111 164 121 21 11 64 37 97 58 33 21 67 43 76 48 9 6 55 36 101
68 46 31 92 57 101 57 9 0 24 4 34 9 9 6 34 13 54 16 21 3 45 13 54 23 28 28
100 65 154 80 19 6 60 20 90 33 30 12 64 25 75 30 11 4 36 11 55 15 19 3 41
10 50 14 79 39 126 52 305 85 50 9 128 23 175 31 225 42 382 53 675 49 132 -2
290 -9 350 -15z m-3674 -104 c17 -9 38 -16 46 -16 7 0 21 -4 31 -10 9 -5 34
-16 55 -25 58 -24 109 -45 152 -65 66 -30 127 -56 195 -85 36 -15 98 -43 138
-61 41 -19 76 -34 78 -34 3 0 29 -11 57 -23 29 -13 97 -44 151 -69 99 -44 122
-62 92 -74 -15 -6 -105 30 -291 116 -164 76 -216 100 -220 100 -2 0 -37 15
-77 34 -40 19 -102 47 -138 64 -36 16 -108 50 -160 76 -151 73 -236 70 -241
-10 -2 -31 38 -134 52 -134 5 0 9 -5 9 -10 0 -9 74 -125 90 -140 6 -6 66 -97
165 -250 37 -58 94 -144 126 -193 33 -48 59 -92 59 -97 0 -6 3 -10 8 -10 13 0
45 -68 37 -80 -11 -18 -25 -1 -136 170 -57 88 -111 171 -119 184 -8 12 -33 51
-55 85 -22 35 -46 69 -52 76 -7 8 -13 16 -13 19 0 3 -42 68 -94 144 -109 161
-133 205 -142 260 -5 33 -2 44 16 62 20 20 30 22 85 17 35 -2 78 -12 96 -21z
m6673 -51 c24 -24 28 -52 15 -93 -15 -45 -62 -130 -87 -158 -11 -11 -25 -31
-32 -45 -19 -37 -104 -164 -112 -167 -5 -2 -8 -7 -8 -12 0 -5 -49 -82 -108
-172 -60 -90 -141 -214 -182 -275 -40 -62 -79 -113 -86 -113 -22 0 -16 21 19
75 54 81 171 259 182 277 32 55 141 220 216 328 135 195 161 259 122 302 -28
31 -113 24 -197 -16 -96 -46 -209 -99 -276 -129 -69 -30 -139 -62 -210 -94
-406 -186 -431 -196 -446 -172 -9 14 7 23 131 77 55 23 114 49 130 56 28 13
434 192 500 221 17 7 66 27 109 45 44 18 87 36 95 40 80 39 197 52 225 25z
m-6441 -171 c61 -26 121 -53 267 -121 41 -20 140 -64 220 -100 80 -35 153 -72
163 -82 17 -17 15 -19 -35 -61 -68 -57 -140 -123 -252 -232 -49 -48 -95 -89
-102 -92 -10 -4 -110 135 -149 206 -5 10 -57 94 -115 186 -121 193 -146 252
-124 294 18 36 45 36 127 2z m6160 -51 c16 -9 5 -77 -21 -131 -16 -31 -79
-136 -140 -232 -61 -96 -137 -216 -169 -267 -32 -51 -63 -92 -69 -93 -15 0
-406 390 -402 401 2 6 98 53 213 105 116 52 234 106 263 120 30 14 72 33 95
43 23 10 62 27 87 39 67 30 108 34 143 15z m-6861 -3103 c-2 -102 1 -247 8
-322 7 -76 10 -144 7 -152 -8 -19 -36 -11 -222 59 -82 31 -211 79 -285 107
-229 85 -240 90 -266 121 -32 38 -26 71 19 109 41 34 61 43 292 123 105 37
237 84 295 105 58 21 116 38 130 37 l25 -2 -3 -185z m7528 68 c63 -21 144 -50
180 -63 36 -13 108 -38 160 -56 201 -68 260 -106 260 -164 0 -54 -26 -71 -210
-140 -69 -25 -147 -55 -175 -65 -27 -10 -117 -44 -200 -76 -82 -31 -163 -57
-180 -58 -35 -1 -33 -29 -15 249 7 105 10 238 7 296 -7 113 0 134 38 123 11
-3 72 -24 135 -46z m-930 -2510 c14 -16 140 -210 140 -215 0 -2 17 -27 38 -56
22 -29 41 -56 43 -62 2 -5 57 -91 123 -190 65 -99 135 -205 155 -235 20 -30
38 -57 41 -60 19 -18 61 -94 74 -134 22 -64 20 -81 -10 -105 -34 -27 -91 -27
-164 -1 -30 11 -63 19 -72 20 -10 0 -18 5 -18 10 0 6 -6 10 -13 10 -11 0 -165
65 -332 140 -22 10 -67 29 -100 43 -33 14 -89 39 -125 55 -36 16 -114 51 -175
77 -218 94 -225 98 -225 117 0 29 16 25 163 -41 26 -11 68 -31 95 -42 92 -41
187 -85 346 -158 48 -23 89 -41 91 -41 7 0 177 -79 250 -116 92 -46 182 -57
214 -25 37 37 19 111 -53 210 -47 65 -395 591 -421 638 -5 10 -13 20 -16 23
-13 10 -79 125 -79 138 0 6 4 12 10 12 5 0 14 -6 20 -12z m-5837 -225 c-54
-81 -102 -156 -108 -166 -28 -48 -144 -222 -200 -302 -143 -201 -166 -279 -91
-310 45 -19 104 -2 259 73 70 34 129 62 132 62 3 0 230 103 320 145 17 7 57
26 90 40 33 15 97 45 142 66 76 35 113 41 113 18 0 -13 -37 -34 -129 -74 -47
-20 -100 -42 -118 -50 -18 -8 -48 -21 -65 -29 -18 -8 -59 -26 -92 -41 -32 -15
-93 -41 -135 -59 -42 -19 -130 -57 -196 -86 -184 -80 -226 -96 -298 -110 -77
-16 -111 -6 -127 35 -17 44 16 110 161 329 76 114 139 212 139 217 0 5 5 9 10
9 6 0 10 4 10 9 0 5 28 51 63 103 34 51 86 131 115 177 65 101 95 134 100 109
2 -9 -41 -83 -95 -165z m5836 3 c38 -61 113 -181 167 -266 54 -85 110 -179
126 -209 31 -59 36 -112 12 -135 -31 -31 -65 -21 -287 83 -60 28 -110 51 -112
51 -3 0 -119 54 -271 125 -50 23 -100 45 -111 49 -12 4 -24 13 -26 21 -4 8 72
92 196 218 188 190 203 203 220 189 10 -9 48 -65 86 -126z m-5579 0 c69 -73
178 -179 248 -241 23 -20 42 -43 42 -50 0 -12 -24 -25 -150 -82 -30 -14 -97
-45 -149 -69 -51 -24 -95 -44 -97 -44 -3 0 -41 -17 -87 -39 -158 -75 -207 -92
-238 -86 -20 5 -31 15 -36 33 -14 53 4 88 177 362 77 121 140 223 140 226 0 3
12 21 26 39 32 43 41 39 124 -49z m2654 -1140 c217 -2 301 -5 304 -14 2 -6 -8
-44 -22 -84 -93 -269 -197 -561 -207 -580 -22 -44 -72 -88 -98 -88 -57 1 -74
32 -171 295 -28 77 -58 156 -65 175 -43 109 -105 281 -105 289 0 12 30 20 50
13 8 -2 150 -5 314 -6z"/>
<path d="M5337 8508 c-32 -40 -99 -138 -122 -176 -5 -10 -103 -157 -216 -327
-314 -473 -316 -476 -283 -489 23 -9 1231 -6 1287 3 26 4 50 10 53 14 7 7 -12
45 -36 72 -10 11 -44 79 -75 150 -84 192 -115 251 -166 308 -58 66 -149 186
-157 207 -9 24 -143 222 -170 253 -39 41 -73 36 -115 -15z"/>
<path d="M4355 6913 c-31 -8 -46 -25 -115 -133 -36 -56 -111 -169 -168 -252
-57 -83 -101 -156 -98 -164 5 -12 117 -14 716 -14 615 0 711 -2 716 -15 3 -8
-14 -47 -39 -87 -49 -80 -215 -343 -268 -425 -19 -28 -47 -73 -63 -100 -81
-131 -196 -314 -232 -368 -23 -33 -71 -109 -109 -170 -37 -60 -81 -130 -97
-155 -15 -25 -54 -86 -86 -137 -51 -83 -132 -211 -332 -529 -166 -265 -240
-386 -240 -394 0 -6 546 -10 1485 -10 1181 0 1485 3 1485 13 0 6 -23 48 -52
92 -109 168 -176 273 -224 348 -27 44 -60 92 -72 108 l-24 29 -731 2 c-670 3
-732 4 -735 19 -2 9 26 61 61 115 35 55 66 106 70 114 4 8 13 24 20 35 7 11
46 76 87 145 40 69 130 211 199 315 69 105 144 219 166 255 22 36 59 93 83
128 23 34 42 65 42 68 0 6 103 170 225 359 28 44 63 100 78 125 15 25 42 68
59 97 18 28 65 102 103 164 39 62 84 135 102 163 18 28 51 88 74 134 39 76 41
84 26 99 -8 9 -37 20 -64 24 -51 8 -2014 10 -2048 2z"/>
<path d="M3690 5733 c-8 -3 -19 -12 -23 -19 -4 -8 -20 -14 -35 -14 -63 0 -137
-85 -277 -318 -5 -10 -26 -39 -46 -67 -19 -27 -87 -135 -151 -240 -129 -213
-128 -211 -257 -408 -87 -133 -251 -399 -260 -422 -6 -16 -71 -125 -118 -197
-24 -38 -50 -68 -59 -68 -8 0 -12 -4 -9 -10 4 -6 140 -10 375 -10 l369 0 14
29 c8 16 45 78 82 138 36 59 72 117 78 128 7 11 24 38 38 60 14 22 59 94 99
160 260 429 336 553 366 598 19 28 35 56 37 62 2 6 82 12 217 15 l213 5 104
170 c57 94 108 179 112 190 5 11 34 60 64 110 42 66 53 93 45 102 -8 10 -111
13 -487 12 -262 0 -483 -3 -491 -6z"/>
<path d="M6134 5726 c-23 -16 -344 -543 -344 -564 0 -9 120 -12 558 -12 306 0
562 -4 567 -8 6 -4 58 -83 114 -177 57 -93 123 -199 146 -235 23 -36 57 -92
75 -125 19 -33 51 -85 72 -116 21 -31 38 -59 38 -62 0 -3 18 -34 40 -68 113
-181 230 -378 230 -388 0 -8 99 -11 338 -11 332 0 382 3 382 22 0 5 -4 7 -9 4
-5 -4 -11 -2 -13 2 -1 5 -28 26 -58 49 -30 22 -62 49 -72 59 -15 17 -88 156
-88 167 0 16 -106 222 -140 272 -22 33 -40 63 -40 67 0 4 -25 43 -55 87 -30
44 -55 85 -55 91 0 5 -4 10 -10 10 -5 0 -10 5 -10 11 0 11 -10 35 -60 139 -22
46 -51 100 -86 157 -39 65 -89 148 -94 158 -5 10 -46 74 -116 182 -19 28 -34
53 -34 56 0 4 -61 100 -115 180 -14 21 -38 43 -53 49 -19 9 -178 13 -557 16
-462 3 -533 1 -551 -12z"/>
<path d="M5005 10412 c-244 -10 -644 -84 -1020 -187 -124 -33 -391 -127 -408
-143 -34 -30 3 -113 42 -93 37 20 474 161 498 161 6 0 33 7 59 15 167 50 500
108 774 135 57 6 110 16 116 23 6 6 16 27 22 44 14 42 0 49 -83 45z"/>
<path d="M5816 10401 c-9 -14 5 -69 21 -83 8 -6 96 -22 196 -34 428 -54 820
-153 1200 -303 52 -20 76 -14 94 24 15 31 15 37 2 49 -23 21 -284 115 -444
161 -33 9 -71 21 -85 26 -65 23 -425 102 -545 120 -306 45 -429 56 -439 40z"/>
<path d="M4915 10218 c-449 -58 -728 -118 -1055 -228 -231 -77 -248 -88 -191
-116 12 -7 37 -26 55 -43 17 -17 39 -31 48 -31 9 0 88 23 175 51 87 27 175 55
196 61 21 7 62 27 90 45 96 63 154 76 267 58 29 -4 103 1 200 15 85 11 180 24
210 28 55 7 55 7 82 62 31 63 35 95 12 104 -9 3 -16 5 -17 5 -1 -1 -33 -6 -72
-11z"/>
<path d="M5875 10210 c-8 -13 24 -127 40 -140 5 -4 78 -18 160 -30 143 -20
339 -56 442 -81 166 -39 455 -128 575 -176 l38 -15 53 48 c72 67 74 71 34 87
-46 20 -305 109 -407 140 -244 75 -551 135 -877 172 -32 3 -54 1 -58 -5z"/>
<path d="M3215 10163 c-49 -11 -116 -68 -140 -120 -59 -123 -9 -250 120 -309
30 -14 55 -27 55 -30 0 -2 -18 -15 -40 -29 -54 -34 -80 -78 -80 -137 0 -38 6
-54 30 -82 17 -19 47 -40 67 -47 59 -19 76 -14 349 116 100 48 124 73 132 141
3 32 -1 52 -18 83 -32 55 -76 75 -152 67 -66 -6 -66 -6 -42 64 38 108 -31 240
-145 279 -34 11 -97 13 -136 4z"/>
<path d="M7505 10071 c-50 -23 -106 -79 -121 -123 -7 -18 -13 -52 -13 -76 -1
-45 -10 -53 -72 -66 -37 -8 -86 -61 -94 -102 -9 -50 4 -100 33 -129 27 -27 64
-46 329 -166 24 -10 57 -19 75 -19 70 0 138 71 138 143 0 40 -26 107 -41 107
-19 0 -8 38 17 61 56 51 82 176 52 246 -52 119 -190 176 -303 124z"/>
<path d="M2930 9783 c-135 -78 -337 -205 -420 -264 -232 -165 -330 -243 -330
-264 0 -12 61 -45 84 -45 7 0 59 36 115 80 87 67 336 241 393 275 10 5 59 35
110 65 51 30 107 62 123 71 37 20 42 47 15 82 -26 33 -33 33 -90 0z"/>
<path d="M7873 9746 c-21 -45 -14 -59 44 -92 62 -36 314 -195 330 -209 7 -5
44 -32 84 -60 39 -27 119 -87 176 -132 58 -46 109 -83 114 -83 5 0 25 7 44 14
64 27 54 40 -140 191 -190 148 -585 405 -621 405 -8 0 -22 -15 -31 -34z"/>
<path d="M2961 9585 c-40 -25 -75 -45 -78 -45 -10 0 -300 -196 -382 -258 -100
-75 -131 -102 -131 -114 0 -9 114 -68 133 -68 7 0 86 52 176 115 90 63 210
143 267 176 57 34 105 68 107 78 8 34 2 154 -8 157 -5 2 -43 -17 -84 -41z"/>
<path d="M7859 9563 c-1 -10 -1 -24 0 -31 1 -6 -3 -28 -8 -48 -5 -19 -7 -42
-4 -50 4 -12 86 -74 98 -74 4 0 72 -46 205 -138 36 -25 100 -71 142 -103 43
-33 81 -59 85 -59 5 0 36 12 71 27 42 19 62 33 62 45 0 30 -283 240 -514 381
-124 76 -135 80 -137 50z"/>
<path d="M3624 9486 c-74 -34 -74 -32 -5 -176 28 -59 58 -75 89 -47 9 8 27 18
39 21 11 4 24 14 27 23 9 23 -77 206 -96 202 -2 0 -26 -11 -54 -23z"/>
<path d="M7178 9433 c-20 -22 -78 -156 -78 -178 0 -10 21 -26 56 -42 55 -25
56 -25 74 -7 19 20 80 157 80 180 0 7 -17 22 -37 33 -62 31 -78 33 -95 14z"/>
<path d="M3428 9397 c-26 -11 -50 -28 -53 -38 -7 -21 69 -187 89 -195 14 -5
110 38 120 55 7 11 -71 183 -88 193 -14 10 -12 10 -68 -15z"/>
<path d="M7374 9352 c-19 -13 -87 -170 -80 -187 7 -19 103 -65 121 -59 11 4
37 57 81 160 16 37 5 51 -60 78 -43 18 -47 19 -62 8z"/>
<path d="M3991 9337 c-112 -39 -126 -204 -21 -257 69 -35 132 -22 184 40 21
25 26 42 26 83 0 44 -5 59 -30 89 -19 23 -45 41 -68 48 -45 12 -48 12 -91 -3z"/>
<path d="M6765 9269 c-65 -57 -71 -148 -14 -207 57 -58 138 -61 197 -8 57 51
67 119 27 179 -32 46 -71 67 -129 67 -36 0 -52 -6 -81 -31z"/>
<path d="M3642 9200 c-46 -44 -57 -73 -49 -130 23 -173 283 -153 280 22 -1 36
-7 57 -27 83 -33 43 -48 51 -112 59 -50 6 -52 5 -92 -34z"/>
<path d="M3369 9060 c-87 -46 -92 -181 -8 -240 43 -31 117 -33 157 -4 39 29
74 102 66 139 -21 103 -124 153 -215 105z"/>
<path d="M7368 8951 c-87 -56 -100 -151 -30 -229 20 -22 40 -32 73 -37 154
-23 229 173 100 261 -43 29 -103 31 -143 5z"/>
<path d="M1664 8775 c-192 -203 -551 -687 -542 -732 4 -24 73 -40 94 -22 8 7
37 44 63 83 26 39 63 94 82 121 69 103 185 251 331 422 94 111 96 115 53 176
-15 21 -16 21 -81 -48z"/>
<path d="M9098 8776 l-21 -45 24 -29 c13 -17 70 -85 127 -153 125 -151 112
-134 196 -249 38 -52 77 -106 87 -120 10 -14 46 -69 80 -123 34 -53 68 -102
74 -107 20 -17 89 2 93 26 3 21 -131 231 -250 392 -134 181 -339 425 -374 445
-10 6 -20 -4 -36 -37z"/>
<path d="M1784 8628 c-100 -107 -242 -283 -333 -413 -94 -135 -161 -238 -161
-247 0 -19 53 -78 70 -78 46 0 77 23 120 88 114 170 296 409 394 516 20 22 36
48 36 58 0 23 -61 118 -75 118 -6 0 -29 -19 -51 -42z"/>
<path d="M8981 8592 c-17 -27 -31 -56 -31 -66 0 -9 35 -58 78 -109 108 -126
221 -277 326 -435 114 -170 145 -190 205 -128 39 40 38 46 -24 141 -25 37 -45
69 -45 71 0 6 -153 220 -218 304 -58 74 -105 132 -201 242 -34 40 -54 35 -90
-20z"/>
<path d="M1000 7930 c-55 -26 -87 -54 -110 -100 -44 -87 -33 -182 31 -254 51
-57 99 -80 174 -80 l60 -1 0 -55 c1 -62 21 -108 61 -139 34 -27 113 -28 155
-4 16 10 63 68 106 133 42 63 84 126 93 140 66 97 67 165 3 224 -63 59 -146
55 -203 -10 -35 -40 -54 -39 -63 3 -10 45 -42 89 -92 123 -63 43 -148 51 -215
20z"/>
<path d="M9695 7861 c-53 -24 -101 -74 -121 -128 -18 -46 -35 -54 -56 -24 -22
31 -81 61 -120 61 -79 0 -138 -62 -138 -146 0 -47 6 -60 107 -211 120 -181
152 -210 224 -200 83 11 129 68 129 160 l0 57 63 0 c101 1 160 37 207 128 34
64 26 160 -18 224 -60 87 -183 122 -277 79z"/>
<path d="M2060 7761 c-40 -21 -80 -83 -80 -125 0 -48 44 -111 90 -130 57 -23
79 -20 133 14 56 35 71 67 63 134 -11 102 -115 156 -206 107z"/>
<path d="M1622 7566 c-47 -65 -44 -76 46 -135 43 -28 86 -51 95 -51 19 0 77
80 77 107 0 12 -30 36 -84 71 -46 28 -88 52 -93 52 -5 0 -24 -20 -41 -44z"/>
<path d="M797 7448 c-91 -209 -120 -285 -187 -493 -77 -237 -153 -574 -184
-810 -45 -358 -45 -355 -13 -355 13 0 39 15 58 33 35 31 36 35 42 124 14 190
48 391 118 678 57 237 99 368 201 620 89 221 88 218 53 255 -16 16 -34 30 -40
30 -7 0 -28 -37 -48 -82z"/>
<path d="M9118 7449 c-43 -29 -78 -58 -78 -65 0 -19 52 -103 68 -109 8 -3 40
12 73 32 33 21 68 43 79 48 35 17 36 52 3 98 -16 23 -38 43 -48 44 -11 2 -55
-20 -97 -48z"/>
<path d="M9982 7427 c-29 -31 -28 -51 9 -138 106 -249 205 -577 264 -872 32
-163 42 -230 69 -457 l21 -184 42 -29 c59 -42 66 -33 58 82 -7 117 -32 338
-45 406 -61 325 -86 436 -136 605 -53 179 -145 434 -205 568 -22 48 -44 54
-77 19z"/>
<path d="M999 7417 c-21 -16 -122 -254 -171 -402 -112 -340 -164 -559 -214
-893 -28 -193 -30 -242 -10 -242 36 0 118 25 132 41 9 10 21 58 29 120 52 392
152 784 286 1114 27 66 49 132 49 146 0 48 -30 117 -53 123 -29 8 -29 7 -48
-7z"/>
<path d="M1512 7391 c-53 -66 -49 -78 43 -139 44 -29 86 -51 94 -50 21 4 84
96 78 112 -8 19 -155 116 -176 116 -4 0 -22 -18 -39 -39z"/>
<path d="M8755 7382 c-39 -24 -54 -43 -65 -84 -10 -33 -3 -129 9 -125 3 1 17
-8 31 -21 67 -62 169 -47 215 32 30 52 32 100 5 144 -41 67 -132 92 -195 54z"/>
<path d="M9817 7348 c-19 -15 -47 -91 -47 -130 0 -14 10 -48 21 -75 37 -84
129 -363 164 -498 63 -240 116 -527 130 -708 8 -88 14 -96 101 -122 73 -22 75
-16 58 139 -28 269 -77 529 -146 776 -50 183 -176 535 -216 608 -14 25 -40 28
-65 10z"/>
<path d="M9241 7277 c-60 -39 -81 -58 -81 -74 0 -33 50 -103 74 -103 31 0 176
99 176 120 0 13 -61 98 -74 103 -8 3 -50 -18 -95 -46z"/>
<path d="M1761 7187 c-19 -7 -48 -29 -64 -50 -75 -92 -10 -230 107 -230 79 0
146 66 146 144 0 94 -101 167 -189 136z"/>
<path d="M8905 7077 c-41 -23 -74 -73 -75 -114 0 -13 7 -40 15 -61 38 -94 156
-118 229 -48 64 60 56 164 -16 216 -50 37 -97 39 -153 7z"/>
<path d="M9413 6595 c-76 -21 -143 -57 -211 -114 -165 -137 -148 -314 48 -512
133 -134 252 -196 600 -311 107 -36 222 -73 255 -83 121 -35 205 -96 205 -148
0 -73 -89 -134 -337 -233 -228 -91 -303 -130 -414 -214 -188 -141 -289 -248
-354 -372 -84 -158 -48 -291 109 -408 135 -99 281 -127 391 -74 68 32 134 95
164 157 20 41 23 60 19 122 -9 135 -75 204 -234 245 -127 32 -266 -79 -268
-215 0 -56 16 -87 61 -116 85 -56 182 18 139 107 -25 54 -21 73 19 90 31 13
39 13 64 -1 74 -38 89 -103 42 -176 -55 -85 -107 -114 -199 -107 -71 5 -126
32 -166 82 -29 36 -31 43 -31 125 0 85 1 90 38 145 79 119 216 230 393 320 50
25 176 78 280 116 288 108 298 112 316 121 10 5 23 9 30 9 30 0 118 72 145
117 60 102 27 250 -78 348 -58 54 -118 83 -269 129 -63 19 -182 56 -265 81
-82 26 -188 58 -235 72 -255 78 -450 242 -450 379 0 37 29 107 57 136 64 67
202 85 278 38 44 -27 95 -99 102 -144 6 -41 -17 -86 -57 -110 -35 -20 -54 -20
-85 0 -28 18 -32 51 -10 80 23 30 18 69 -14 103 -46 49 -109 37 -166 -31 -25
-29 -27 -38 -22 -86 10 -93 84 -182 168 -202 113 -27 263 40 316 143 27 52 29
155 5 210 -27 61 -95 133 -155 163 -61 32 -153 39 -224 19z"/>
<path d="M10190 5426 c0 -8 4 -17 9 -20 11 -7 33 18 24 27 -12 12 -33 7 -33
-7z"/>
<path d="M390 5138 c0 -62 40 -399 60 -503 34 -177 77 -361 116 -500 76 -268
180 -548 207 -553 8 -2 27 12 41 31 27 35 33 66 17 82 -11 12 -77 198 -133
375 -88 280 -156 622 -189 949 -12 122 -12 123 -43 142 -17 10 -41 19 -53 19
-20 0 -23 -5 -23 -42z"/>
<path d="M596 5102 c-28 -27 45 -510 120 -802 47 -180 126 -423 177 -544 l20
-48 46 6 c89 12 92 56 16 280 -111 333 -176 621 -215 950 -6 49 -15 96 -20
105 -9 17 -135 63 -144 53z"/>
<path d="M10386 5075 c-46 -16 -54 -26 -60 -80 -68 -553 -159 -915 -340 -1357
-20 -48 -36 -92 -36 -98 0 -12 59 -70 72 -70 14 0 98 201 167 400 111 324 186
638 227 955 22 169 28 252 18 258 -5 3 -27 -1 -48 -8z"/>
<path d="M10172 4995 c-92 -28 -83 -8 -127 -288 -17 -105 -65 -330 -89 -412
-54 -189 -109 -355 -170 -510 -56 -140 -47 -182 40 -198 43 -8 54 6 108 141
120 298 241 733 275 992 30 218 34 258 28 273 -7 20 -9 20 -65 2z"/>
<path d="M8905 4202 c-41 -26 -52 -41 -66 -94 -15 -54 -5 -86 42 -137 26 -29
36 -33 83 -33 99 -1 151 46 150 136 0 33 -7 64 -18 80 -40 62 -131 85 -191 48z"/>
<path d="M1513 3914 c-113 -77 -111 -73 -72 -133 21 -31 41 -51 52 -51 27 0
166 91 173 113 3 11 -5 34 -22 58 -44 64 -53 65 -131 13z"/>
<path d="M8803 3924 c-156 -53 -116 -274 49 -274 41 0 54 5 88 36 116 105 10
288 -137 238z"/>
<path d="M9132 3841 c-19 -27 -32 -57 -30 -67 3 -19 131 -110 162 -116 26 -4
90 83 81 112 -5 16 -156 120 -175 120 -3 0 -20 -22 -38 -49z"/>
<path d="M1180 3852 c-50 -25 -82 -77 -80 -132 3 -71 3 -70 -41 -70 -62 0
-114 -19 -160 -59 -81 -69 -101 -172 -53 -269 85 -171 329 -168 406 4 24 57
34 61 66 31 38 -35 65 -47 107 -47 80 0 135 60 135 147 0 46 -7 60 -107 212
-91 136 -114 165 -149 181 -50 25 -79 25 -124 2z"/>
<path d="M1668 3760 c-14 -11 -29 -20 -32 -20 -13 0 -95 -62 -100 -76 -9 -22
51 -114 74 -114 9 0 36 14 58 30 23 17 45 30 50 30 4 0 22 13 40 30 l33 30
-34 52 c-38 61 -53 67 -89 38z"/>
<path d="M9464 3762 c-38 -24 -58 -55 -170 -269 -70 -131 -72 -188 -9 -248 52
-51 174 -42 205 15 18 34 39 24 51 -24 14 -56 70 -123 123 -147 53 -24 139
-24 192 0 85 39 146 150 129 238 -26 142 -156 222 -298 182 -22 -6 -41 -8 -44
-5 -3 3 4 28 16 55 34 81 25 136 -33 190 -36 34 -118 40 -162 13z"/>
<path d="M9034 3683 c-34 -37 -55 -78 -48 -95 8 -19 149 -108 171 -108 23 0
85 92 77 113 -2 6 -21 23 -42 36 -20 13 -48 32 -62 41 -63 42 -68 43 -96 13z"/>
<path d="M8641 3589 c-73 -44 -95 -101 -66 -174 42 -111 183 -125 251 -26 47
70 19 167 -59 205 -47 22 -85 20 -126 -5z"/>
<path d="M1241 3191 l-53 -48 22 -44 c90 -177 504 -739 545 -739 15 0 85 96
85 117 0 6 -19 33 -42 60 -109 126 -301 396 -420 593 -35 57 -68 105 -73 107
-6 2 -34 -19 -64 -46z"/>
<path d="M9458 3118 c-14 -18 -42 -60 -62 -93 -21 -33 -60 -91 -87 -130 -27
-38 -65 -92 -84 -120 -19 -27 -65 -88 -102 -134 -38 -46 -76 -96 -87 -113
l-18 -29 36 -54 c21 -32 43 -55 54 -55 17 1 103 100 211 244 84 112 261 381
261 397 -1 8 -23 38 -49 67 l-49 53 -24 -33z"/>
<path d="M1000 3102 c0 -38 228 -394 389 -608 45 -59 228 -279 264 -316 25
-26 32 -23 45 21 18 57 15 73 -19 111 -125 144 -272 338 -386 510 -42 63 -84
127 -95 142 -10 15 -18 31 -19 35 0 4 -17 33 -37 63 -37 54 -39 55 -90 58 -46
3 -52 1 -52 -16z"/>
<path d="M9658 2983 c-8 -10 -62 -88 -118 -173 -96 -144 -209 -298 -275 -374
-60 -69 -104 -125 -106 -137 -6 -27 22 -89 39 -89 45 0 447 531 544 718 25 48
20 56 -33 66 -27 5 -39 2 -51 -11z"/>
<path d="M3295 2334 c-92 -52 -106 -166 -28 -234 136 -119 313 69 195 207 -23
27 -37 33 -82 38 -41 4 -63 1 -85 -11z"/>
<path d="M7383 2303 c-34 -7 -80 -66 -88 -112 -11 -65 26 -130 86 -155 62 -25
108 -16 154 29 64 65 57 162 -17 215 -40 29 -73 35 -135 23z"/>
<path d="M3975 1989 c-39 -12 -69 -38 -89 -77 -32 -61 -15 -126 46 -177 29
-24 38 -27 90 -23 69 5 112 39 129 101 19 73 -12 135 -85 168 -46 21 -49 21
-91 8z"/>
<path d="M6726 1970 c-52 -16 -106 -87 -106 -138 0 -32 44 -105 74 -123 92
-56 216 16 216 127 0 92 -95 162 -184 134z"/>
<path d="M2273 1934 c-38 -18 -50 -29 -46 -42 8 -25 133 -128 369 -299 105
-77 113 -81 133 -67 23 16 67 15 64 -1 -1 -6 -4 -22 -7 -35 -6 -23 2 -30 92
-82 54 -32 107 -58 118 -58 11 0 33 13 49 30 27 28 28 32 17 68 -11 34 -24 46
-139 117 -150 92 -320 212 -453 318 -106 85 -118 88 -197 51z"/>
<path d="M8461 1952 c-8 -2 -68 -47 -135 -100 -67 -52 -205 -151 -308 -219
-104 -68 -192 -132 -197 -141 -4 -9 -12 -35 -16 -56 -3 -22 -13 -49 -21 -60
-21 -30 -18 -56 7 -56 43 0 352 196 584 371 174 131 230 181 223 201 -10 24
-112 69 -137 60z"/>
<path d="M3412 1918 c-21 -26 -81 -169 -76 -182 7 -19 100 -60 119 -53 19 8
85 145 85 179 0 19 -10 29 -45 46 -52 25 -68 27 -83 10z"/>
<path d="M7338 1878 c-26 -11 -49 -26 -52 -34 -7 -17 64 -173 86 -191 12 -11
25 -8 69 15 45 23 54 31 51 51 -4 39 -75 176 -92 178 -8 1 -36 -8 -62 -19z"/>
<path d="M2075 1845 c-22 -6 -41 -19 -43 -27 -5 -26 256 -239 495 -406 129
-90 379 -242 397 -242 17 0 26 22 26 66 0 37 11 28 -175 143 -55 34 -147 96
-205 137 -58 40 -116 82 -130 91 -14 10 -80 63 -148 118 -164 133 -167 135
-217 120z"/>
<path d="M8564 1738 c-77 -62 -185 -145 -239 -184 -101 -71 -321 -217 -340
-225 -35 -14 -128 -74 -132 -85 -6 -16 34 -84 49 -84 25 0 360 213 518 328 89
66 253 196 295 234 17 15 33 28 37 28 4 0 16 13 27 29 l21 29 -24 15 c-57 37
-62 35 -212 -85z"/>
<path d="M3568 1759 c-21 -44 -39 -88 -40 -97 -3 -17 82 -71 113 -72 19 0 104
172 96 194 -8 19 -79 56 -109 56 -19 0 -30 -14 -60 -81z"/>
<path d="M7140 1786 c-55 -28 -56 -41 -6 -148 39 -86 44 -89 112 -61 68 28 70
40 21 140 -48 100 -58 106 -127 69z"/>
<path d="M3214 1640 c-82 -36 -110 -138 -59 -212 14 -20 25 -41 25 -47 0 -6
-16 -17 -35 -27 -128 -60 -165 -236 -74 -347 85 -103 234 -112 331 -19 55 52
72 106 64 193 l-6 71 32 -6 c112 -24 156 -11 199 56 25 41 21 116 -8 156 -23
33 -184 115 -351 181 -62 25 -65 25 -118 1z"/>
<path d="M7420 1564 c-80 -36 -159 -72 -175 -79 -108 -47 -117 -200 -16 -259
36 -21 116 -25 134 -7 13 13 47 15 47 2 0 -6 -10 -27 -22 -47 -26 -45 -29
-140 -5 -194 34 -77 118 -130 205 -130 69 0 111 16 159 63 120 115 79 318 -75
372 -26 10 -56 20 -66 24 -16 6 -10 13 37 39 60 34 97 86 97 137 0 27 -23 80
-44 101 -22 21 -75 44 -103 44 -15 0 -93 -30 -173 -66z"/>
<path d="M3605 1162 c-55 -19 -80 -57 -57 -85 12 -14 177 -79 332 -130 219
-73 479 -137 715 -177 146 -25 367 -50 378 -43 11 6 1 60 -19 108 -17 41 -35
50 -124 60 -59 6 -133 17 -305 46 -178 30 -551 134 -759 213 -79 30 -93 31
-161 8z"/>
<path d="M7120 1171 c-29 -18 -353 -122 -484 -156 -130 -33 -390 -88 -476
-100 -25 -3 -72 -10 -105 -15 -33 -4 -89 -11 -125 -15 -36 -3 -72 -10 -79 -14
-18 -11 -61 -120 -54 -137 6 -17 45 -18 167 -3 239 29 426 62 646 116 261 63
641 193 670 228 21 25 1 49 -58 73 -78 32 -85 33 -102 23z"/>
<path d="M3482 965 c-33 -37 -28 -59 16 -78 177 -75 517 -183 727 -232 39 -9
88 -20 110 -25 126 -30 451 -81 616 -95 88 -8 95 -4 79 54 -12 46 -12 46 -140
61 -347 41 -576 86 -870 170 -137 39 -420 137 -462 161 -29 15 -53 10 -76 -16z"/>
<path d="M7265 970 c-16 -4 -68 -22 -115 -40 -369 -138 -799 -239 -1205 -280
-206 -21 -189 -16 -213 -62 -11 -23 -19 -45 -16 -50 9 -14 134 -9 305 12 313
39 539 85 844 171 177 51 462 157 469 175 4 11 -31 88 -37 83 -1 -1 -15 -5
-32 -9z"/>
</g>
</svg>
