<?xml version="1.0" standalone="no"?>
<!DOCTYPE svg PUBLIC "-//W3C//DTD SVG 20010904//EN"
 "http://www.w3.org/TR/2001/REC-SVG-20010904/DTD/svg10.dtd">
<svg version="1.0" xmlns="http://www.w3.org/2000/svg"
 width="512.000000pt" height="512.000000pt" viewBox="0 0 512.000000 512.000000"
 preserveAspectRatio="xMidYMid meet">

<g transform="translate(0.000000,512.000000) scale(0.100000,-0.100000)"
fill="#000000" stroke="none">
<path d="M2526 5016 c-14 -25 -110 -210 -212 -413 -103 -202 -231 -455 -285
-561 -55 -106 -99 -199 -99 -207 0 -13 81 -15 625 -15 344 0 628 0 633 0 18
-1 10 40 -21 100 -19 36 -74 144 -124 240 -135 261 -230 444 -283 545 -26 50
-76 144 -110 210 -65 126 -77 145 -90 145 -5 0 -20 -20 -34 -44z"/>
<path d="M1652 3202 l-42 -3 -145 -294 c-80 -162 -145 -297 -145 -300 0 -3
275 -5 611 -5 379 1 616 -3 621 -8 7 -7 -69 -169 -209 -449 -217 -433 -794
-1578 -952 -1888 -44 -88 -81 -166 -81 -173 0 -19 2499 -17 2506 3 3 7 -8 37
-25 66 -16 30 -81 154 -143 277 -63 122 -121 231 -130 242 -17 19 -32 19 -565
16 -301 -2 -579 -1 -618 3 -63 5 -70 8 -73 29 -2 13 4 35 14 50 15 22 520
1022 761 1507 41 83 122 245 180 360 58 116 144 285 189 376 46 92 84 173 84
180 0 12 -139 14 -898 14 -493 0 -916 -1 -940 -3z"/>
<path d="M992 1943 c-7 -3 -37 -53 -66 -112 -56 -113 -403 -799 -698 -1379
-99 -195 -177 -360 -174 -368 4 -11 60 -13 313 -11 l308 2 55 111 c30 61 67
135 81 165 14 30 46 95 71 144 25 50 90 182 144 294 54 112 137 281 184 374
l85 169 165 0 c90 0 170 3 178 5 7 3 27 35 44 72 38 83 136 286 200 415 37 76
46 102 37 112 -9 12 -92 14 -463 13 -248 0 -457 -3 -464 -6z"/>
<path d="M3166 1937 c-8 -7 -58 -100 -109 -207 -52 -107 -113 -233 -136 -279
-66 -136 -116 -122 432 -120 l472 1 57 -113 c32 -63 121 -244 199 -404 378
-775 355 -732 390 -739 48 -9 597 -7 603 3 3 4 -61 140 -143 302 -723 1431
-783 1547 -801 1555 -8 3 -225 7 -482 9 -347 3 -470 1 -482 -8z"/>
</g>
</svg>
